<svg width="52" height="49" viewBox="0 0 52 49" fill="none" xmlns="http://www.w3.org/2000/svg">
<g clip-path="url(#clip0_4_4605)">
<path fill-rule="evenodd" clip-rule="evenodd" d="M3.6828 47.6888C12.1659 32.5435 25.6801 21.3037 44.225 13.9692L36.7269 10.1774L44.3635 11.0623L52 11.9467L48.8178 16.25V40.8933C48.8178 43.1241 47.9093 45.1517 46.447 46.6194C44.9846 48.0872 42.9646 48.9991 40.7414 48.9991H17.2762C17.8973 47.7501 18.5747 46.5274 19.3055 45.3298H40.7414C41.9548 45.3298 43.0598 44.8298 43.8617 44.0249C44.6636 43.2206 45.1624 42.1109 45.1624 40.893V21.1934L42.8365 24.3382L45.2383 16.163C32.0612 24.383 19.2941 35.1216 13.2209 48.9991H8.07606C6.45859 48.9991 4.94861 48.5164 3.6828 47.6879" fill="#E10800"/>
<path fill-rule="evenodd" clip-rule="evenodd" d="M3.65569 30.8761C13.0041 23.2383 24.715 17.435 38.7907 13.4674C24.6221 20.3218 8.33481 30.3333 1.06303 44.8949C0.387098 43.7117 0 42.3452 0 40.8939V8.10644C0 5.8834 0.907893 3.8585 2.37082 2.38713L2.37797 2.37996C3.84418 0.911276 5.86155 0 8.07605 0H40.7417C42.9583 0 44.9769 0.913069 46.4434 2.38354L46.4472 2.37966C47.9096 3.84744 48.8181 5.87473 48.8181 8.10614V8.39426C48.5754 8.47556 45.1537 7.80936 45.1439 7.70326C45.0474 6.64493 44.5752 5.68912 43.862 4.97391V4.96674C43.0649 4.16635 41.9602 3.66931 40.7417 3.66931H8.07605C6.85728 3.66931 5.75286 4.16635 4.95574 4.96674L4.9486 4.97391C4.15088 5.7743 3.65599 6.88284 3.65599 8.10614V30.8761H3.65569Z" fill="#2F71DE"/>
<path fill-rule="evenodd" clip-rule="evenodd" d="M26.2202 41.6617C28.7798 36.842 31.99 31.9568 35.8434 27.1999C30.5179 31.423 25.5568 36.2305 21.6465 41.6617H26.2202Z" fill="#2F71DE"/>
</g>
<defs>
<clipPath id="clip0_4_4605">
<rect width="52" height="49" fill="white"/>
</clipPath>
</defs>
</svg>
